<?xml version="1.0" standalone="no"?>
<!DOCTYPE svg PUBLIC "-//W3C//DTD SVG 20010904//EN"
 "http://www.w3.org/TR/2001/REC-SVG-20010904/DTD/svg10.dtd">
<svg version="1.0" xmlns="http://www.w3.org/2000/svg"
 width="3842.000000pt" height="3842.000000pt" viewBox="0 0 3842.000000 3842.000000"
 preserveAspectRatio="xMidYMid meet">
<metadata>
Created by potrace 1.14, written by Peter Selinger 2001-2017
</metadata>
<g transform="translate(0.000000,3842.000000) scale(0.100000,-0.100000)"
fill="#000000" stroke="none">
<path d="M16580 34091 c-181 -106 -398 -231 -487 -282 -21 -12 -74 -42 -118
-68 -44 -25 -88 -50 -97 -56 -38 -22 -245 -142 -288 -166 -25 -14 -117 -68
-205 -119 -88 -50 -185 -106 -215 -122 -30 -17 -62 -37 -71 -44 -8 -8 -18 -14
-21 -14 -6 0 -299 -168 -360 -207 -21 -12 -39 -23 -42 -23 -2 0 -82 -46 -177
-101 -96 -56 -199 -115 -229 -132 -30 -16 -59 -33 -65 -38 -5 -4 -39 -24 -75
-44 -94 -54 -333 -191 -437 -251 -18 -11 -119 -69 -225 -130 -106 -61 -279
-161 -385 -222 -534 -309 -1236 -714 -1458 -842 -137 -79 -258 -150 -267 -158
-10 -8 -18 -12 -18 -8 0 4 -12 -1 -27 -12 -16 -10 -73 -45 -128 -77 -251 -145
-433 -249 -465 -267 -19 -11 -39 -24 -45 -28 -5 -4 -31 -19 -57 -33 -25 -14
-106 -60 -180 -103 -198 -114 -600 -346 -623 -358 -11 -6 -27 -16 -35 -22 -8
-6 -40 -25 -70 -42 -30 -16 -227 -129 -438 -251 -211 -122 -387 -221 -393
-221 -5 0 -9 -3 -9 -7 0 -5 -26 -21 -58 -38 -31 -16 -76 -42 -98 -57 -23 -16
-44 -28 -47 -28 -3 0 -38 -19 -79 -43 -40 -24 -93 -55 -118 -69 -75 -43 -293
-169 -325 -189 -16 -10 -40 -23 -52 -28 -12 -6 -39 -21 -60 -34 -21 -13 -58
-35 -83 -49 -108 -60 -126 -71 -135 -78 -5 -4 -28 -18 -50 -30 -74 -41 -642
-369 -795 -458 -19 -12 -69 -40 -110 -64 -41 -23 -82 -47 -91 -53 -9 -5 -32
-19 -50 -29 -19 -10 -198 -114 -399 -229 -201 -116 -374 -215 -385 -221 -11
-6 -27 -16 -35 -22 -8 -6 -46 -28 -85 -49 -38 -21 -74 -41 -80 -45 -5 -5 -55
-34 -110 -65 -119 -68 -94 -54 -426 -245 -145 -84 -277 -161 -294 -170 -16
-10 -118 -68 -225 -130 -107 -62 -210 -121 -228 -132 -34 -19 -269 -155 -447
-258 -55 -32 -230 -133 -390 -225 -159 -92 -321 -185 -360 -208 -38 -23 -83
-49 -100 -57 -16 -9 -70 -40 -120 -70 -49 -29 -106 -61 -125 -72 -19 -11 -107
-62 -195 -113 -88 -51 -178 -103 -200 -115 -22 -12 -96 -55 -165 -95 -69 -40
-141 -82 -160 -92 -19 -11 -74 -43 -122 -72 -48 -28 -91 -51 -97 -51 -6 0 -11
-4 -11 -10 0 -5 -4 -10 -8 -10 -8 0 -523 -293 -562 -320 -8 -6 -21 -13 -29
-17 -8 -3 -64 -35 -125 -71 -61 -36 -131 -76 -156 -90 -25 -13 -49 -28 -55
-32 -5 -4 -32 -20 -60 -36 -65 -36 -86 -48 -235 -134 -69 -40 -145 -84 -170
-98 -25 -14 -76 -44 -115 -67 -38 -22 -77 -44 -85 -48 -8 -4 -24 -13 -35 -20
-57 -34 -264 -154 -290 -168 l-30 -16 -3 -2898 -2 -2897 61 -142 c34 -77 72
-165 85 -194 13 -29 24 -55 24 -58 0 -3 11 -29 24 -57 57 -126 66 -146 66
-151 0 -2 16 -39 35 -80 19 -42 35 -78 35 -81 0 -2 11 -28 24 -57 14 -29 52
-118 86 -198 34 -80 71 -165 82 -190 39 -87 47 -106 98 -225 28 -66 58 -135
66 -152 8 -18 21 -49 29 -68 19 -45 38 -87 69 -158 14 -32 26 -59 26 -61 0 -4
205 -477 230 -531 5 -11 30 -69 56 -130 25 -60 54 -128 64 -150 10 -22 54
-125 100 -230 45 -104 95 -219 110 -255 16 -36 53 -121 83 -190 29 -69 91
-210 136 -315 l83 -190 70 -40 c39 -22 110 -63 158 -91 47 -28 106 -62 131
-76 24 -14 204 -117 399 -230 195 -113 375 -216 400 -230 25 -14 110 -64 190
-110 80 -47 251 -146 380 -220 129 -75 251 -145 270 -157 19 -11 69 -39 110
-62 41 -24 107 -61 145 -84 39 -23 194 -113 345 -200 151 -87 354 -204 450
-260 96 -56 195 -113 220 -127 25 -14 160 -92 300 -173 140 -82 273 -158 296
-171 22 -12 58 -33 80 -46 21 -14 64 -39 94 -55 30 -17 208 -119 394 -227 187
-108 343 -196 348 -196 4 0 8 -4 8 -10 0 -5 5 -10 11 -10 8 0 114 -59 179
-100 8 -6 31 -19 51 -29 19 -11 134 -77 255 -147 250 -145 253 -146 354 -204
41 -24 122 -71 180 -105 58 -34 125 -73 150 -87 25 -14 203 -116 395 -228 193
-111 370 -214 394 -228 25 -14 68 -38 95 -55 28 -16 71 -41 96 -55 25 -14 173
-99 330 -190 157 -91 305 -176 330 -190 25 -13 50 -28 55 -32 6 -4 27 -18 49
-29 21 -12 271 -156 555 -320 284 -164 535 -309 558 -322 23 -13 79 -46 125
-73 46 -27 103 -60 128 -74 25 -14 182 -105 350 -202 168 -97 325 -188 350
-202 69 -39 288 -166 350 -203 30 -18 75 -44 100 -57 25 -14 187 -108 360
-208 173 -100 330 -191 348 -202 32 -18 425 -244 685 -394 70 -41 185 -108
257 -149 71 -41 147 -86 169 -100 22 -14 43 -25 46 -25 2 0 42 -22 87 -49 46
-27 252 -146 458 -265 206 -118 380 -220 387 -226 7 -5 14 -10 17 -10 2 0 172
-97 378 -216 205 -119 391 -226 413 -239 97 -54 478 -276 525 -304 19 -12 47
-27 63 -33 15 -7 27 -16 27 -20 0 -4 5 -8 10 -8 6 0 40 -18 76 -40 36 -22 67
-40 69 -40 2 0 36 -19 77 -43 40 -24 93 -55 118 -69 25 -14 117 -67 205 -118
248 -144 328 -190 330 -190 1 0 44 -25 94 -55 51 -30 94 -55 97 -55 3 0 18 -8
32 -19 15 -10 50 -31 77 -46 41 -22 159 -90 435 -250 14 -8 174 -101 355 -206
182 -105 337 -195 345 -199 61 -37 222 -130 224 -130 2 0 63 -35 137 -78 74
-43 154 -90 179 -104 58 -32 660 -381 810 -469 63 -37 147 -84 185 -104 l71
-37 128 73 c70 41 140 82 156 91 15 9 106 61 201 116 96 55 225 130 288 166
62 36 115 66 116 66 2 0 32 18 66 40 35 22 82 48 104 60 22 11 58 31 80 45 22
14 65 39 95 55 30 17 76 43 101 58 25 15 196 114 380 220 184 107 341 198 349
203 16 10 359 207 425 244 22 13 81 46 130 75 50 29 108 63 130 75 22 13 81
47 130 76 50 28 119 69 155 89 36 20 151 86 255 147 225 130 631 365 695 402
216 124 267 153 280 161 19 12 292 170 343 199 76 43 108 62 392 226 302 174
776 448 1195 690 616 356 926 535 1067 617 83 48 167 96 185 106 50 29 596
344 738 427 69 40 142 82 163 94 21 12 98 56 170 98 73 42 184 105 247 141 63
36 122 70 130 77 8 7 40 25 70 41 30 16 66 36 80 45 14 9 239 139 500 289 261
150 495 285 520 300 25 15 169 99 320 186 151 86 388 223 525 302 229 133 327
190 417 240 18 11 101 59 183 107 83 48 168 97 190 110 58 33 609 350 685 395
36 21 209 121 385 223 176 102 336 194 355 206 19 11 42 24 50 28 8 3 55 30
103 60 49 29 90 53 92 53 3 0 42 22 87 49 76 44 545 316 628 363 94 54 518
299 613 355 60 34 110 63 113 63 2 0 28 16 58 35 30 19 57 35 60 35 3 0 57 32
122 70 64 39 118 70 120 70 4 0 235 133 399 230 44 26 100 58 125 72 25 14
234 134 464 268 231 133 433 250 450 260 17 9 47 27 67 39 19 11 79 72 131
133 53 62 105 122 115 133 10 11 59 67 108 125 135 157 138 160 165 190 14 15
34 38 45 52 57 68 131 154 136 158 3 3 50 57 104 120 54 63 101 117 104 120 4
3 44 50 91 105 47 55 87 102 90 105 3 3 32 36 65 75 33 38 65 75 70 81 17 19
111 127 155 179 24 28 66 77 95 110 29 33 92 105 139 160 l86 100 0 2892 0
2892 -72 43 c-40 24 -84 49 -98 56 -14 7 -34 18 -45 25 -24 14 -164 95 -215
124 -19 11 -105 61 -190 110 -85 49 -229 133 -320 185 -91 52 -205 119 -255
148 -49 29 -108 62 -130 74 -22 13 -123 71 -224 129 -101 59 -185 107 -188
107 -2 0 -22 11 -44 26 -22 14 -55 33 -72 43 -18 10 -90 52 -162 94 -351 203
-427 247 -432 247 -2 0 -23 13 -46 28 -23 15 -105 64 -182 109 -402 232 -664
383 -695 401 -19 10 -102 59 -185 107 -82 48 -168 97 -190 110 -77 43 -766
441 -900 520 -49 29 -369 213 -710 410 -341 197 -778 450 -972 562 -193 111
-354 203 -357 203 -4 0 -39 20 -79 44 -39 23 -211 123 -382 221 -170 98 -417
241 -548 317 -131 76 -241 138 -243 138 -3 0 -17 8 -32 19 -15 10 -124 74
-242 141 -118 68 -235 135 -260 150 -25 15 -65 39 -90 52 -25 14 -101 58 -170
98 -68 40 -138 81 -155 90 -17 9 -86 49 -153 89 -68 39 -127 71 -132 71 -6 0
-10 5 -10 10 0 6 -4 10 -10 10 -5 0 -44 21 -87 46 -43 25 -107 62 -143 82 -36
19 -72 40 -80 46 -8 6 -24 16 -35 22 -11 6 -213 122 -450 259 -236 136 -443
256 -460 265 -16 10 -84 49 -150 87 -66 39 -140 81 -165 95 -25 14 -160 92
-300 173 -468 271 -563 325 -571 325 -5 0 -9 5 -9 10 0 6 -5 10 -10 10 -6 0
-27 11 -48 23 -20 13 -57 35 -82 49 -25 14 -164 94 -310 178 -146 84 -278 161
-295 170 -113 65 -1076 621 -1143 661 -45 27 -84 49 -87 49 -2 0 -32 17 -67
39 -35 21 -187 109 -338 196 -151 87 -385 222 -520 300 -135 78 -265 153 -290
167 -38 21 -124 71 -395 228 -16 10 -86 50 -155 90 -69 40 -246 142 -395 228
-148 85 -274 158 -280 162 -5 4 -30 19 -55 32 -25 14 -117 67 -205 118 -88 51
-176 102 -195 113 -78 44 -490 282 -555 321 -38 22 -78 44 -87 48 -9 4 -45 25
-80 46 -35 22 -193 115 -353 206 -159 92 -297 172 -305 176 -59 35 -272 157
-305 175 -22 12 -70 41 -108 63 -37 23 -69 42 -71 42 -2 0 -81 46 -177 101
-96 56 -199 116 -229 132 -30 17 -84 48 -119 69 -34 21 -64 38 -66 38 -2 0
-49 27 -104 60 -56 33 -104 60 -108 60 -3 0 -14 6 -22 14 -9 7 -47 30 -86 51
-38 21 -74 41 -80 45 -5 4 -129 76 -275 160 -146 84 -278 160 -295 170 -29 16
-105 61 -322 186 -54 31 -118 68 -143 82 -25 14 -57 33 -72 43 -14 11 -29 19
-32 19 -3 0 -46 25 -97 55 -50 30 -93 55 -95 55 -2 0 -41 22 -86 49 -81 48
-138 81 -188 108 -14 8 -43 25 -65 39 -22 13 -47 27 -55 31 -8 4 -49 27 -90
51 -132 78 -540 312 -542 311 -2 0 -55 -31 -118 -68z"/>
</g>
</svg>
