<svg xmlns="http://www.w3.org/2000/svg" xml:space="preserve" viewBox="0 0 3841.8 2989.5" fill-rule="evenodd" clip-rule="evenodd" stroke-linejoin="bevel" stroke-miterlimit="1.5"><path d="m2171 2218 1671-964v578l-1671 965v-579Z" fill="#959595"/><path d="m3842 1832-167 193-1671 965 167-193v-97l1671-964v96Z" fill="#666"/><path d="M2171 2218v579L0 1543V964l2171 1254Z" fill="#dcdcdc"/><path d="m2171 2797-167 193L167 1929 0 1543v-96l2171 1253v97Z" fill="#a5a5a5"/><path d="M347 1778v107l185 107 1-107-186-107" fill="#959595"/><path d="m347 1778 5-4 186 107v107l-6 4v-107l-185-107Z" fill="#666"/><path d="M570 1930v107l185 107v-107l-185-107Z" fill="#959595"/><path d="m570 1930 26-15 186 107v107l-27 15v-107l-185-107Z" fill="#666"/><path d="m309 1800-1 35-30-18v-35l31 18Z" fill="#fa888f"/><path d="m309 1800-1 35-30-18v-35l31 18Z" fill="#fa888f"/><path d="m446 1449-72-42v16l25 14v36c0 25-11 39-25 31-13-8-25-34-25-60v-87c0-25 12-39 25-31 14 8 25 34 25 60v19l45 26c-7-51-36-102-70-122-39-23-72 6-72 64 0 59 29 123 65 143 12 7 22 9 32 5v7l47 27v-106Zm61 103v-56c0-21 8-25 15-20 8 4 16 17 16 38v56c0 21-8 25-16 20-7-4-15-17-15-38Zm15-93c-30-17-54 1-54 42s24 88 54 106c31 17 55-1 55-42s-24-88-55-106Zm68 180 38 22v-138l54 169 39 23v-198l-39-22v138l-54-169-38-23v198Zm152-109v197l96 56v-16l-57-34v-74l43 25v-16l-43-25v-74l57 33v-16l-96-56Zm108 119c0 83 76 98 76 145 0 21-7 25-15 21-7-5-15-18-15-39v-18l-46-26c0 35 27 79 61 99s61 7 61-28c0-83-77-98-77-145 0-21 8-25 16-21 7 5 15 18 15 39v17l46 27c0-35-27-79-61-99s-61-7-61 28Z" fill="#e60012" fill-rule="nonzero"/><path d="m1670 0 2172 1254-1671 964L0 964 1670 0Z" fill="#cfcfcf"/><path d="m251 1109 334-193 1252 723-334 193v386L251 1495v-386Z" fill="none" stroke="#a7a7a7" stroke-width="8.3"/><path d="m3174 868-1671 964 418 241 1670-964-417-241Z" fill="#3b3b3b"/><path d="M1921 2941v-868l-418-241v868l418 241Z" fill="#555"/><path d="m1837 1639 84-48 417 241-83 49-418-242Zm167-96 84-48 417 241-83 48-418-241Zm167-96 84-49 418 241-84 49-418-241Zm167-97 84-48 418 241-84 48-418-241Zm168-96 83-49 418 242-84 48-417-241Zm167-97 83-48 418 241-84 48-417-241Zm167-96 83-48 418 241-84 48-417-241Z" fill="#cfcfcf"/><path d="m2756 1109 84-48 417 241-83 48-418-241Zm-167 96 84-48 417 241-83 49-418-242Zm-167 97 83-48 418 241-83 48-418-241Zm-167 96 83-48 418 241-83 48-418-241Zm-167 97 83-48 418 241-84 48-417-241Zm-167 96 83-48 418 241-84 48-417-241Z" fill="#aeaeae"/></svg>