<svg xmlns="http://www.w3.org/2000/svg" xml:space="preserve" style="fill-rule:evenodd;clip-rule:evenodd;stroke-linejoin:round;stroke-miterlimit:2" viewBox="0 0 128 24.84"><path d="M25.95 12.24H15.14v2.87h3.62c0 5.29-3.1 6.95-5.55 6.95-2.46 0-5.55-1.66-5.55-6.95V9.44c0-5.29 3.1-6.96 5.55-6.96 2.48 0 4.41 1.58 4.85 4.62h7.54C23.9 2.8 18.94 0 13.5 0 7.36 0 0 4 0 12.27c0 7.98 6.78 12.28 12.63 12.28 2.36 0 4.52-.64 6.13-1.84v1.25h7.2V12.24ZM39.45 7.36c-5.84 0-10.29 3.98-10.29 8.74 0 4.77 4.45 8.74 10.3 8.74 5.84 0 10.28-3.97 10.28-8.74 0-4.76-4.44-8.74-10.29-8.74Zm0 1.87c1.9 0 2.92 1.55 2.92 4.36v5.03c0 2.8-1.02 4.35-2.92 4.35s-2.92-1.55-2.92-4.35v-5.03c0-2.8 1.02-4.36 2.92-4.36ZM77.5 23.96V.58h-7.19V16.9L60.14.6h-7.19v23.37h7.2V7.66l10.16 16.3h7.2ZM88.78 3.45h13.1V.58H81.58v23.38h20.28V21.1H88.78v-7.69h11.34v-2.86H88.78v-7.1ZM116.28 0c-6.75 0-11.42 3.16-11.42 7.3 0 3.22 2.19 5.56 8.5 7.34 5.73 1.6 7.33 2.4 7.33 4.44 0 1.99-1.7 2.98-4.3 2.98-2.6 0-4.35-1.2-4.35-3.91h-7.83c.3 3.56 5.26 6.4 11.9 6.4 6.92 0 11.89-3.16 11.89-7.6 0-3.19-2.3-5.64-8.68-7.33-5.73-1.52-7.16-2.43-7.16-4.15 0-2.1 1.4-2.99 3.83-2.99 2.4 0 3.74.82 3.74 3.3h7.54C126.97 2.38 122.7 0 116.28 0Z" style="fill:#fff;fill-rule:nonzero"/></svg>