<svg xmlns="http://www.w3.org/2000/svg" xml:space="preserve" style="fill-rule:evenodd;clip-rule:evenodd;stroke-linejoin:bevel;stroke-miterlimit:1.5" viewBox="0 0 3841.8 2989.5"><path d="m2171 2218 1671-964v578l-1671 965v-579Z" style="fill:#959595"/><path d="m3842 1832-167 193-1671 965 167-193v-97l1671-964v96Z" style="fill:#666"/><path d="M2171 2218v579L0 1543V964l2171 1254Z" style="fill:#dcdcdc"/><path d="m2171 2797-167 193L167 1929 0 1543v-96l2171 1253v97Z" style="fill:#a5a5a5"/><path d="M347 1778v107l185 107 1-107-186-107" style="fill:#959595"/><path d="m347 1778 5-4 186 107v107l-6 4v-107l-185-107Z" style="fill:#666"/><path d="M570 1930v107l185 107v-107l-185-107Z" style="fill:#959595"/><path d="m570 1930 26-15 186 107v107l-27 15v-107l-185-107Z" style="fill:#666"/><path d="m309 1800-1 35-30-18v-35l31 18Z" style="fill:#fa888f"/><path d="m309 1800-1 35-30-18v-35l31 18Z" style="fill:#fa888f"/><path d="m437 1452-58-33v25l20 11c0 45-17 50-30 43-13-8-29-31-29-77v-49c0-45 16-50 29-43 13 8 24 27 26 55l40 23c-9-43-35-82-64-98-33-19-71-7-71 64 0 69 35 127 66 144 13 8 24 9 33 3v11l38 22v-101ZM508 1451c-31-18-55 3-55 44s24 89 55 106c31 18 54-3 54-44s-23-88-54-106Zm0 16c10 6 15 22 15 46v44c0 24-5 34-15 28-10-5-16-22-16-46v-43c0-25 6-35 16-29ZM708 1709v-201l-38-22v141l-53-172-38-22v202l38 22v-141l53 172 38 21ZM768 1567l69 40v-25l-107-62v202l107 61v-24l-69-40v-66l60 34v-25l-60-34v-61ZM913 1621c-36-21-60-8-60 28 0 28 11 54 44 89 31 31 39 43 39 60s-9 21-22 13c-14-8-23-24-23-47l-42-24c2 32 28 71 63 91 36 22 63 9 63-29 0-27-12-55-46-89-30-31-38-43-38-58 0-18 8-21 20-14 13 7 20 18 20 40l40 23c-2-31-24-64-58-83Z" style="fill:#e60012;fill-rule:nonzero"/><path d="m1670 0 2172 1254-1671 964L0 964 1670 0Z" style="fill:#cfcfcf"/><path d="m251 1109 334-193 1252 723-334 193v386L251 1495v-386Z" style="fill:none;stroke:#a7a7a7;stroke-width:8.33px"/><path d="m3174 868-1671 964 418 241 1670-964-417-241Z" style="fill:#3b3b3b"/><path d="M1921 2941v-868l-418-241v868l418 241Z" style="fill:#555"/><path d="m1837 1639 84-48 417 241-83 49-418-242ZM2004 1543l84-48 418 241-84 48-418-241ZM2171 1447l84-49 418 241-84 49-418-241ZM2338 1350l84-48 418 241-84 48-418-241ZM2506 1254l83-49 418 242-84 48-417-241ZM2673 1157l83-48 418 241-84 48-417-241ZM2840 1061l83-48 418 241-84 48-417-241Z" style="fill:#cfcfcf"/><path d="m2756 1109 84-48 417 241-83 48-418-241ZM2589 1205l84-48 417 241-83 49-418-242ZM2422 1302l84-48 417 241-83 48-418-241ZM2255 1398l83-48 418 241-83 48-418-241ZM2088 1495l83-48 418 241-83 48-418-241ZM1921 1591l83-48 418 241-84 48-417-241Z" style="fill:#aeaeae"/></svg>